<svg width="1200" height="630" viewBox="0 0 1200 630" fill="none" xmlns="http://www.w3.org/2000/svg">
  <defs>
    <linearGradient id="bg" x1="98" y1="34" x2="1048" y2="646" gradientUnits="userSpaceOnUse">
      <stop stop-color="#F8F4ED"/>
      <stop offset="1" stop-color="#F1ECE4"/>
    </linearGradient>
    <radialGradient id="orbA" cx="0" cy="0" r="1" gradientUnits="userSpaceOnUse" gradientTransform="translate(1010 126) rotate(90) scale(142)">
      <stop stop-color="#4E6B73" stop-opacity="0.28"/>
      <stop offset="1" stop-color="#4E6B73" stop-opacity="0"/>
    </radialGradient>
    <radialGradient id="orbB" cx="0" cy="0" r="1" gradientUnits="userSpaceOnUse" gradientTransform="translate(170 518) rotate(90) scale(190)">
      <stop stop-color="#B97839" stop-opacity="0.2"/>
      <stop offset="1" stop-color="#B97839" stop-opacity="0"/>
    </radialGradient>
    <filter id="shadow" x="298" y="76" width="604" height="478" filterUnits="userSpaceOnUse" color-interpolation-filters="sRGB">
      <feFlood flood-opacity="0" result="BackgroundImageFix"/>
      <feColorMatrix in="SourceAlpha" type="matrix" values="0 0 0 0 0 0 0 0 0 0 0 0 0 0 0 0 0 0 127 0" result="hardAlpha"/>
      <feOffset dy="26"/>
      <feGaussianBlur stdDeviation="24"/>
      <feColorMatrix type="matrix" values="0 0 0 0 0.101961 0 0 0 0 0.0980392 0 0 0 0 0.0862745 0 0 0 0.14 0"/>
      <feBlend mode="normal" in2="BackgroundImageFix" result="effect1_dropShadow_0_1"/>
      <feBlend mode="normal" in="SourceGraphic" in2="effect1_dropShadow_0_1" result="shape"/>
    </filter>
  </defs>

  <rect width="1200" height="630" fill="url(#bg)"/>
  <circle cx="1010" cy="126" r="142" fill="url(#orbA)"/>
  <circle cx="170" cy="518" r="190" fill="url(#orbB)"/>

  <g opacity="0.32">
    <path d="M0 96H1200" stroke="#171717" stroke-opacity="0.08"/>
    <path d="M0 156H1200" stroke="#171717" stroke-opacity="0.08"/>
    <path d="M0 216H1200" stroke="#171717" stroke-opacity="0.08"/>
    <path d="M0 276H1200" stroke="#171717" stroke-opacity="0.08"/>
    <path d="M0 336H1200" stroke="#171717" stroke-opacity="0.08"/>
    <path d="M0 396H1200" stroke="#171717" stroke-opacity="0.08"/>
    <path d="M0 456H1200" stroke="#171717" stroke-opacity="0.08"/>
    <path d="M0 516H1200" stroke="#171717" stroke-opacity="0.08"/>
    <path d="M90 0V630" stroke="#171717" stroke-opacity="0.08"/>
    <path d="M150 0V630" stroke="#171717" stroke-opacity="0.08"/>
    <path d="M210 0V630" stroke="#171717" stroke-opacity="0.08"/>
    <path d="M270 0V630" stroke="#171717" stroke-opacity="0.08"/>
    <path d="M330 0V630" stroke="#171717" stroke-opacity="0.08"/>
    <path d="M390 0V630" stroke="#171717" stroke-opacity="0.08"/>
  </g>

  <g filter="url(#shadow)">
    <rect x="346" y="98" width="508" height="382" rx="40" fill="#FFFDF9" fill-opacity="0.88"/>
    <rect x="346.75" y="98.75" width="506.5" height="380.5" rx="39.25" stroke="#171717" stroke-opacity="0.08" stroke-width="1.5"/>
  </g>

  <rect x="386" y="136" width="148" height="34" rx="17" fill="#171717"/>
  <text x="414" y="158" fill="#FFFDF9" font-family="Avenir Next, PingFang SC, Hiragino Sans GB, sans-serif" font-size="15" font-weight="700" letter-spacing="0.08em">System Recon</text>

  <text x="386" y="246" fill="#171717" font-family="Iowan Old Style, Songti SC, STSong, serif" font-size="68" font-weight="400" letter-spacing="-0.05em">系统侦察任务</text>
  <text x="386" y="305" fill="#6A665D" font-family="Avenir Next, PingFang SC, Hiragino Sans GB, sans-serif" font-size="24" font-weight="600">在 AI 时代，先认识系统，再借 AI 加速</text>
  <text x="386" y="345" fill="#6A665D" font-family="Avenir Next, PingFang SC, Hiragino Sans GB, sans-serif" font-size="21" font-weight="500">定边界 · 看结构 · 建模型 · 做压缩 · 校验而非代替</text>

  <rect x="390" y="388" width="104" height="48" rx="24" fill="#4E6B73" fill-opacity="0.14"/>
  <text x="417" y="417" fill="#4E6B73" font-family="Avenir Next, PingFang SC, Hiragino Sans GB, sans-serif" font-size="18" font-weight="700">关卡 1-5</text>

  <rect x="720" y="176" width="122" height="72" rx="18" fill="#4E6B73" fill-opacity="0.9"/>
  <text x="751" y="218" fill="#FFFDF9" font-family="Avenir Next, PingFang SC, Hiragino Sans GB, sans-serif" font-size="22" font-weight="700">边界</text>

  <rect x="804" y="290" width="122" height="72" rx="18" fill="#171717" fill-opacity="0.9"/>
  <text x="835" y="332" fill="#FFFDF9" font-family="Avenir Next, PingFang SC, Hiragino Sans GB, sans-serif" font-size="22" font-weight="700">结构</text>

  <rect x="684" y="374" width="122" height="72" rx="18" fill="#B97839" fill-opacity="0.9"/>
  <text x="714" y="416" fill="#FFFDF9" font-family="Avenir Next, PingFang SC, Hiragino Sans GB, sans-serif" font-size="22" font-weight="700">模型</text>

  <path d="M801 247C818 263 829 275 835 290" stroke="#171717" stroke-opacity="0.18" stroke-width="2"/>
  <path d="M804 364C781 373 770 382 760 394" stroke="#171717" stroke-opacity="0.18" stroke-width="2"/>
</svg>
